<svg width="36" height="32" viewBox="0 0 36 32" fill="none" xmlns="http://www.w3.org/2000/svg">
<path d="M10.7522 32C9.81963 32 9.02344 31.7068 8.36363 31.1203C7.70379 30.5338 7.37387 29.8288 7.37387 29.0052C7.37387 28.1816 7.70592 27.4785 8.37002 26.8958C9.03413 26.3131 9.83246 26.0217 10.765 26.0217C11.6976 26.0217 12.4938 26.3149 13.1536 26.9014C13.8134 27.4879 14.1433 28.1929 14.1433 29.0165C14.1433 29.8401 13.8113 30.5433 13.1472 31.126C12.4831 31.7087 11.6848 32 10.7522 32ZM28.8847 32C27.9522 32 27.156 31.7068 26.4962 31.1203C25.8363 30.5338 25.5064 29.8288 25.5064 29.0052C25.5064 28.1816 25.8385 27.4785 26.5026 26.8958C27.1667 26.3131 27.965 26.0217 28.8975 26.0217C29.8301 26.0217 30.6263 26.3149 31.2861 26.9014C31.946 27.4879 32.2759 28.1929 32.2759 29.0165C32.2759 29.8401 31.9438 30.5433 31.2797 31.126C30.6156 31.7087 29.8173 32 28.8847 32ZM7.19254 3.17597H33.91C34.6044 3.17597 35.1327 3.45399 35.495 4.01002C35.8572 4.56603 35.8621 5.12427 35.5095 5.68474L29.284 15.5863C28.9516 16.1023 28.5153 16.5115 27.9752 16.814C27.435 17.1165 26.8438 17.2677 26.2015 17.2677H12.5416L10.1844 21.111H32.2759V23.7798H10.4564C9.1569 23.7798 8.20494 23.355 7.60052 22.5054C6.9961 21.6559 6.99107 20.7462 7.58543 19.7765L10.3355 15.3195L3.56603 2.66887H0V0H5.50019L7.19254 3.17597Z" fill="#E6E6E6"/>
</svg>
