<svg width="34" height="30" viewBox="0 0 34 30" fill="none" xmlns="http://www.w3.org/2000/svg">
<path d="M16.7674 30L14.8112 28.2819C11.8955 25.6909 9.48753 23.4545 7.58723 21.5727C5.68693 19.6909 4.17321 18.0068 3.04608 16.5204C1.91893 15.0341 1.12946 13.6818 0.677694 12.4637C0.225898 11.2455 0 10.0091 0 8.75455C0 6.26365 0.856993 4.18182 2.57098 2.50908C4.28499 0.83636 6.40886 0 8.94257 0C10.4889 0 11.9328 0.34545 13.2742 1.03635C14.6156 1.72728 15.78 2.71819 16.7674 4.00909C17.8665 2.66365 19.0728 1.6591 20.3863 0.995441C21.6997 0.331813 23.1017 0 24.5921 0C27.1258 0 29.2497 0.83636 30.9637 2.50908C32.6777 4.18182 33.5347 6.26365 33.5347 8.75455C33.5347 10.0091 33.3088 11.2455 32.857 12.4637C32.4052 13.6818 31.6158 15.0341 30.4886 16.5204C29.3615 18.0068 27.8478 19.6909 25.9475 21.5727C24.0472 23.4545 21.6392 25.6909 18.7235 28.2819L16.7674 30Z" fill="#E6E6E6"/>
</svg>
